<?xml version="1.0" encoding="UTF-8"?>
<!DOCTYPE svg PUBLIC "-//W3C//DTD SVG 1.1//EN" "http://www.w3.org/Graphics/SVG/1.1/DTD/svg11.dtd">
<!-- Creator: CorelDRAW X8 -->
<svg xmlns="http://www.w3.org/2000/svg" xml:space="preserve" width="210mm" height="297mm" version="1.1" style="shape-rendering:geometricPrecision; text-rendering:geometricPrecision; image-rendering:optimizeQuality; fill-rule:evenodd; clip-rule:evenodd"
viewBox="0 0 21000 29700"
 xmlns:xlink="http://www.w3.org/1999/xlink">
 <defs>
  <style type="text/css">
   <![CDATA[
    .fil0 {fill:#201C1F}
    .fil2 {fill:url(#id0);fill-rule:nonzero}
    .fil1 {fill:url(#id1);fill-rule:nonzero}
    .fil3 {fill:url(#id2);fill-rule:nonzero}
   ]]>
  </style>
  <linearGradient id="id0" gradientUnits="userSpaceOnUse" x1="11408.1" y1="14919.5" x2="11453.9" y2="8924.72">
   <stop offset="0" style="stop-opacity:1; stop-color:#F29015"/>
   <stop offset="1" style="stop-opacity:1; stop-color:#F9B209"/>
  </linearGradient>
  <linearGradient id="id1" gradientUnits="userSpaceOnUse" xlink:href="#id0" x1="11501.1" y1="12618.1" x2="11567.8" y2="7829.28">
  </linearGradient>
  <linearGradient id="id2" gradientUnits="userSpaceOnUse" xlink:href="#id0" x1="11324.4" y1="20372.1" x2="11324.4" y2="16333.3">
  </linearGradient>
 </defs>
 <g id="Слой_x0020_1">
  <metadata id="CorelCorpID_0Corel-Layer"/>
  <g id="_2085176307936">
   <path class="fil0" d="M12458 14774c521,-166 992,-443 1387,-802l437 253c546,-534 948,-1214 1143,-1977l-438 -253c56,-258 86,-526 86,-801 0,-275 -30,-543 -86,-801l438 -253c-195,-763 -597,-1442 -1143,-1976l-437 252c-367,-334 -801,-597 -1279,-765 -351,-122 -720,44 -1103,41 -524,-4 -1040,-142 -1254,-86 -25,6 -47,13 -64,18 -509,167 -970,440 -1357,792l-437 -252c-546,534 -948,1214 -1143,1976l438 253c-56,258 -86,526 -86,801 0,275 30,543 86,801l-438 253c195,763 597,1443 1143,1977l437 -253c395,359 866,636 1387,802l0 505c363,101 746,156 1141,156 396,0 779,-55 1142,-156l0 -505z"/>
   <path class="fil0" d="M12458 7615c521,166 992,442 1387,801l437 -252c546,534 948,1214 1143,1976l-438 253c56,258 86,526 86,801 0,275 -30,543 -86,801l438 253c-195,763 -597,1443 -1143,1977l-437 -253c-367,334 -801,597 -1279,765 -351,122 -720,-44 -1103,-41 -524,5 -1040,142 -1254,87 -25,-7 -47,-13 -64,-19 -509,-167 -970,-440 -1357,-792l-437 253c-546,-534 -948,-1214 -1143,-1977l438 -253c-56,-258 -86,-526 -86,-801 0,-275 30,-543 86,-801l-438 -253c195,-762 597,-1442 1143,-1976l437 252c395,-359 866,-635 1387,-801l0 -506c363,-101 746,-155 1141,-155 396,0 779,54 1142,155l0 506z"/>
   <path class="fil1" d="M11317 7849c1847,0 3344,1498 3344,3345 0,254 -28,501 -82,739 33,-185 49,-375 49,-568 0,-1820 -1475,-3295 -3294,-3295 -1820,0 -3295,1475 -3295,3295 0,425 81,832 228,1205 -190,-419 -295,-885 -295,-1376 0,-1847 1497,-3345 3345,-3345z"/>
   <path class="fil2" d="M10382 9524l533 -635 618 301 -458 663 -693 -329zm-207 5755c0,-62 1,-2040 1,-2040l-1239 -1922 1117 -1669 1436 663 53 614 -247 353 -631 -155 -363 -563 41 347 -101 234 -408 116 610 38 735 326 522 1594 -761 130 697 -1 665 243 -417 -295 -99 -1223 -479 -456 744 269 553 516 762 -673 -266 1337 -639 645 -3 1572c-92,45 -1086,338 -2283,0zm2123 -3470l312 339 1009 -913 -508 -541 -813 1115zm-794 -428l969 -1469 613 491 -935 1273 -647 -295zm204 -1154l-498 -286 575 -803 655 438 -525 830 -224 281 17 -460z"/>
   <path class="fil3" d="M7279 17443c-87,219 -444,166 -444,-24l0 -545c0,-197 353,-241 460,-45l326 -132c-127,-281 -362,-364 -556,-364 -317,0 -630,183 -630,541l0 545c0,360 313,541 623,541 199,0 438,-99 570,-356l-349 -161zm791 811l0 -317 731 0 0 317 406 0 0 -676 -138 0 -427 -1222 -422 0 -414 1222 -143 0 0 676 407 0zm447 -1103l109 427 -384 0 118 -423 70 -353 9 0 78 349zm1224 -420l697 0 0 -375 -1102 0 0 1581 1102 0 0 -377 -697 0 0 -237 641 0 0 -346 -641 0 0 -246zm1460 71l92 463 199 672 429 0 -545 -1581 -369 0 -532 1581 429 0 188 -672 96 -463 13 0zm1584 -446l-364 0 -552 1581 429 0 98 -317 423 0 102 317 429 0 -565 -1581zm-299 909l116 -463 11 0 110 463 -237 0zm1351 76l456 0 0 596 402 0 0 -1581 -402 0 0 598 -456 0 0 -598 -402 0 0 1581 402 0 0 -596zm1050 76c0,362 328,543 656,543 329,0 655,-181 655,-543l0 -541c0,-362 -328,-543 -657,-543 -328,0 -654,179 -654,543l0 541zm400 -541c0,-116 125,-179 250,-179 129,0 261,56 261,179l0 541c0,114 -127,172 -255,172 -127,0 -256,-56 -256,-172l0 -541zm-9078 2375c9,-302 -212,-483 -514,-483l-634 0 0 1582 646 0c350,0 522,-154 563,-409 20,-121 -7,-324 -224,-433 114,-58 161,-186 163,-257l0 0zm-746 136l0 -282 232 0c201,0 195,282 0,282l-232 0zm0 612l0 -324 232 0c237,0 242,324 0,324l-232 0zm1888 -646l0 -585 -402 0 0 1582 402 0 0 -548 14 -17 409 565 502 0 -623 -804 625 -778 -498 0 -429 585zm1477 -241l-157 -344 -453 0 520 1070 -232 512 431 0 715 -1582 -444 0 -143 322 -119 308 -11 0 -107 -286zm1767 396c113,-58 172,-201 172,-304 0,-288 -195,-458 -546,-458 -230,0 -402,87 -527,241l210 206c52,-38 172,-112 288,-112 134,0 202,60 202,150 0,105 -72,165 -190,165l-226 0 0 275 235 0c129,0 205,67 205,181 0,114 -94,169 -255,169 -98,0 -212,-58 -301,-158l-255 199c119,194 333,310 579,310 400,0 634,-183 634,-496 0,-141 -60,-286 -225,-368zm1648 326c0,-315 -136,-485 -576,-485l-233 0 0 -246 679 0 0 -335 -1081 0 0 1582 646 0c350,0 565,-201 565,-516zm-809 165l0 -360 230 0c123,0 184,63 184,175 0,111 -45,185 -181,185l-233 0zm1751 -1231l-364 0 -551 1582 428 0 99 -317 422 0 103 317 429 0 -566 -1582zm-299 909l116 -462 11 0 110 462 -237 0zm1758 179c-87,219 -445,165 -445,-25l0 -545c0,-196 353,-241 461,-44l326 -132c-128,-282 -362,-364 -557,-364 -317,0 -630,183 -630,540l0 545c0,360 313,541 624,541 199,0 438,-98 569,-355l-348 -161zm1324 0c-87,219 -444,165 -444,-25l0 -545c0,-196 353,-241 460,-44l326 -132c-127,-282 -362,-364 -556,-364 -317,0 -630,183 -630,540l0 545c0,360 313,541 623,541 199,0 438,-98 570,-355l-349 -161zm923 -713l697 0 0 -375 -1102 0 0 1582 1102 0 0 -378 -697 0 0 -237 641 0 0 -346 -641 0 0 -246z"/>
  </g>
 </g>
</svg>
